# xmcd
#
# Track frame offsets:
#	150
#	13693
#	28501
#	40743
#	54146
#	68550
#	81412
#	94766
#	107570
#	117581
#	128708
#	142053
#	154725
#	169444
#	182060
#	193297
#	207660
#	220252
#
# Disc length: 3104 seconds
#
# Revision: 1
# Processed by: cddbd v1.5.1PL0 Copyright (c) Steve Scherf et al.
# Submitted via: EasyCDDAExtractor 7.0.6.1
#
DISCID=070c1e12
DTITLE=Patti Page - Patti page Confess
DYEAR=1900
DGENRE=Easy Listening
TTITLE0=Mockin' Bird Hill
TTITLE1=I Went To Your Wedding
TTITLE2=I Don't Care If The Sun Don't Shine
TTITLE3=Would I Love You Love You Love You
TTITLE4=Mister And Mississippi
TTITLE5=You Belong To Me
TTITLE6=And So To Sleep Again
TTITLE7=Confess
TTITLE8=Come What May
TTITLE9=Back In Your Own Backyard
TTITLE10=Down The trail of Ach' Hearts
TTITLE11=Whispering Winds
TTITLE12=All My Love
TTITLE13=Once In A While
TTITLE14=Conquest
TTITLE15=With My Eyes Wide Open I'm Dreaming
TTITLE16=Detour
TTITLE17=Why Don't You Believe Me
EXTD=
EXTT0=
EXTT1=
EXTT2=
EXTT3=
EXTT4=
EXTT5=
EXTT6=
EXTT7=
EXTT8=
EXTT9=
EXTT10=
EXTT11=
EXTT12=
EXTT13=
EXTT14=
EXTT15=
EXTT16=
EXTT17=
PLAYORDER=
